# Blender 4.0.2
# www.blender.org
mtllib ship.mtl
o mesh-windo
v 1.323110 0.694679 8.147550
v 1.557600 1.273580 7.221320
v -0.236993 1.273580 7.221230
v 2.323930 0.698694 6.473460
v -0.471477 0.694679 8.147450
v -1.328330 0.694679 8.147410
v -1.562720 1.273580 7.221160
v -2.328970 0.698694 6.473210
v -1.134290 1.273580 7.221180
vn 0.2137 0.8032 0.5561
vn 0.5099 0.6655 0.5450
vn -0.0000 0.8480 0.5300
vn 0.7749 0.4290 0.4643
vn -0.7749 0.4290 0.4642
vn -0.2138 0.8032 0.5561
vn -0.5100 0.6655 0.5450
s 1
usemtl blue_pure
f 1//1 2//2 3//3
s 0
f 1//4 4//4 2//4
s 1
f 1//1 3//3 5//3
s 0
f 6//5 7//5 8//5
s 1
f 5//3 9//3 6//6
f 3//3 9//3 5//3
f 9//3 7//7 6//6
o mesh-cruis
v -0.675263 -1.852480 -1.114950
v 0.671017 -1.852480 -1.114880
v -1.126600 -1.852480 8.147420
v 1.121380 -1.852480 8.147540
v -0.353180 -0.926239 -5.283010
v 0.349368 -0.926239 -5.282970
v -0.353180 -0.463120 -5.283010
v 0.349368 -0.463120 -5.282970
v -0.675238 0.463119 -1.578070
v 0.671041 0.463119 -1.578000
v -1.239230 1.852480 1.663740
v 1.234700 1.852480 1.663870
v -1.797100 1.852480 6.294910
v 1.792080 1.852480 6.295090
v -0.859562 -0.463120 9.999910
v 0.854147 -0.463120 10.000000
v -0.471477 0.694679 8.147450
v 1.323110 0.694679 8.147550
v -3.329700 -0.463120 6.354110
v -1.536870 -0.488180 -1.346550
v 1.532640 -0.488180 -1.346390
v 3.324670 -0.463120 6.354460
v -0.578094 -0.694679 -5.283020
v 0.574286 -0.694679 -5.282960
v -1.328330 0.694679 8.147410
v -2.328970 0.698694 6.473210
v 2.323930 0.698694 6.473460
v 1.557600 1.273580 7.221320
v -0.236993 1.273580 7.221230
v -1.134290 1.273580 7.221180
v -1.562720 1.273580 7.221160
v 3.386810 -0.343071 -0.497534
v 3.386810 -0.029701 -0.497534
v 3.534390 -0.157059 -0.910662
v 3.386750 -0.352671 0.741870
v 3.386750 -0.029701 0.741870
v 3.858890 -0.362018 1.007480
v 3.858890 -0.029701 1.007480
v 4.537640 -0.362019 0.859971
v 4.537640 -0.029701 0.859971
v 4.832760 -0.345826 0.505871
v 4.832760 0.001820 0.505871
v 5.009830 -0.355141 0.063231
v 5.009830 0.004682 0.063231
v 4.862310 -0.343071 -0.497457
v 4.862310 0.032724 -0.497457
v 4.567250 -0.345762 -1.146690
v 4.567250 0.070112 -1.146690
v 3.889000 -0.157059 -9.793060
v 3.564360 -0.157059 -9.999630
v 3.618180 0.213665 -0.355442
v 3.724760 0.213665 -0.653810
v 3.618130 0.213665 0.539685
v 3.959120 0.213665 0.731517
v 4.449290 0.213665 0.624979
v 4.662430 0.213665 0.369242
v 4.790320 0.213665 0.049558
v 4.683770 0.213665 -0.355386
v 4.470670 0.213665 -0.824273
v 4.379560 0.306289 -0.519925
v 4.515280 0.306289 -0.221275
v 3.904390 0.306289 -0.411353
v 3.836530 0.306289 -0.221311
v 3.836500 0.306289 0.348835
v 4.583120 0.306289 0.036653
v 4.501690 0.306289 0.240273
v 4.053700 0.306289 0.471022
v 4.365890 0.306289 0.403164
v 4.219610 0.398913 0.014011
v 3.181680 -0.515220 1.663970
v 3.181690 -0.202615 1.427980
v 2.255390 -0.523557 2.590160
v 2.255400 -0.194279 2.354170
v 5.034180 -0.432820 1.200950
v 5.034190 -0.285016 0.964958
v 5.960390 -0.358918 1.664120
v 0.866226 -0.573573 -1.114870
v 0.866226 -0.144262 -1.114870
v 2.255560 -0.358918 -0.651674
v 5.497400 -0.358918 -0.651504
v 4.571180 -0.358918 -1.114670
v -3.534120 -0.157059 -0.911033
v -3.386600 -0.029701 -0.497891
v -3.386600 -0.343071 -0.497891
v -3.386660 -0.029701 0.741514
v -3.386660 -0.352671 0.741514
v -3.858830 -0.029701 1.007070
v -3.858830 -0.362018 1.007070
v -4.537550 -0.029701 0.859494
v -4.537550 -0.362019 0.859494
v -4.832620 0.001820 0.505363
v -4.832620 -0.345826 0.505363
v -5.009660 0.004682 0.062704
v -5.009660 -0.355141 0.062704
v -4.862080 0.032724 -0.497968
v -4.862080 -0.343071 -0.497968
v -4.566950 0.070112 -1.147170
v -4.566950 -0.345762 -1.147170
v -3.887770 -0.157059 -9.793470
v -3.563160 -0.157059 -10.000000
v -3.617940 0.213665 -0.355823
v -3.724490 0.213665 -0.654202
v -3.617990 0.213665 0.539304
v -3.959010 0.213665 0.731101
v -4.449180 0.213665 0.624511
v -4.662300 0.213665 0.368752
v -4.790160 0.213665 0.049054
v -4.683570 0.213665 -0.355879
v -4.470420 0.213665 -0.824744
v -4.379300 0.306289 -0.520386
v -4.515070 0.306289 -0.221750
v -3.904190 0.306289 -0.411764
v -3.836330 0.306289 -0.221715
v -3.836360 0.306289 0.348432
v -4.582960 0.306289 0.036171
v -4.501520 0.306289 0.239800
v -4.053560 0.306289 0.470596
v -4.365780 0.306289 0.402705
v -4.219450 0.398913 0.013567
v -2.255490 -0.523557 2.589930
v -3.181660 -0.202615 1.427650
v -3.181680 -0.515220 1.663640
v -2.255470 -0.194279 2.353930
v -5.034120 -0.285016 0.964429
v -5.034130 -0.432820 1.200420
v -5.960390 -0.358918 1.663490
v -2.255320 -0.358918 -0.651911
v -0.865933 -0.144262 -1.114960
v -0.865933 -0.573573 -1.114960
v -5.497150 -0.358918 -0.652082
v -4.570890 -0.358918 -1.115150
vn -0.0000 -1.0000 -0.0000
vn -0.0000 -0.9762 -0.2169
vn 0.0001 -0.0000 -1.0000
vn -0.0000 0.9701 -0.2425
vn -0.0000 0.9191 -0.3939
vn -0.0000 1.0000 -0.0000
vn -0.0000 0.8480 0.5300
vn -0.0000 -0.8000 0.6000
vn -0.5185 -0.8547 -0.0253
vn -0.8157 -0.5471 -0.1881
vn 0.8416 -0.5385 -0.0409
vn 0.4673 -0.8777 -0.1059
vn -0.8165 -0.5470 -0.1847
vn -0.7106 -0.6902 -0.1369
vn 0.7020 -0.6818 -0.2057
vn 0.8197 -0.5467 -0.1709
vn -0.0000 -0.0000 -1.0000
vn -0.6981 0.6780 -0.2302
vn -0.7493 0.6263 -0.2154
vn 0.7490 0.6245 -0.2212
vn 0.7018 0.6817 -0.2066
vn -0.7312 0.5717 -0.3722
vn 0.7312 0.5717 -0.3721
vn -0.9560 0.2697 -0.1152
vn -0.8205 0.5381 -0.1928
vn 0.8309 0.5474 -0.1000
vn 0.8986 0.3849 -0.2104
vn -0.7749 0.4290 0.4642
vn 0.7749 0.4290 0.4643
vn -0.7134 -0.5074 0.4834
vn 0.7134 -0.5074 0.4834
vn 0.7216 0.4901 0.4890
vn -0.7216 0.4901 0.4889
vn 0.6923 0.5483 0.4692
vn -0.7394 -0.6071 -0.2910
vn -0.6924 0.5483 0.4691
vn 0.7395 -0.6071 -0.2909
vn -0.9417 -0.0000 -0.3364
vn -1.0000 -0.0000 -0.0000
vn -0.4903 -0.0000 0.8716
vn 0.2124 -0.0000 0.9772
vn 0.7682 -0.0000 0.6402
vn 0.9285 -0.0000 0.3714
vn 0.9671 -0.0000 -0.2544
vn 0.9104 -0.0000 -0.4137
vn 0.9969 -0.0000 -0.0782
vn -0.1813 -0.9834 -0.0072
vn -0.1620 -0.9837 0.0777
vn -0.0000 -0.9118 -0.4106
vn -0.0000 -1.0000 -0.0077
vn -0.0095 -0.9998 -0.0190
vn 0.0087 -0.9997 0.0245
vn -0.0008 -0.9994 -0.0338
vn -0.0121 -0.9984 -0.0558
vn -0.2167 0.9762 -0.0087
vn -0.5250 0.7423 -0.4164
vn -0.7655 0.5825 -0.2734
vn -0.7247 0.6890 -0.0000
vn -0.3154 0.7656 0.5606
vn 0.1486 0.7143 0.6839
vn 0.5033 0.7163 0.4832
vn 0.5718 0.6678 0.4766
vn 0.6557 0.7062 0.2669
vn 0.6611 0.7021 0.2645
vn 0.6508 0.7473 -0.1339
vn 0.6841 0.7068 -0.1800
vn 0.5436 0.8151 -0.2001
vn 0.5762 0.7742 -0.2619
vn -0.3022 0.6429 -0.7038
vn -0.0981 0.8979 -0.4292
vn 0.3691 0.9141 -0.1677
vn 0.3690 0.9142 -0.1677
vn -0.0708 0.9482 -0.3098
vn -0.3263 0.9380 -0.1166
vn -0.3264 0.9380 -0.1165
vn -0.3905 0.9206 -0.0000
vn 0.4114 0.9050 -0.1082
vn 0.4113 0.9050 -0.1082
vn 0.3948 0.9051 0.1579
vn -0.1573 0.9471 0.2796
vn -0.1573 0.9471 0.2797
vn 0.0780 0.9301 0.3590
vn 0.3150 0.9121 0.2625
vn 0.3149 0.9121 0.2625
vn 0.2231 0.9695 -0.1014
vn -0.0418 0.9822 -0.1829
vn -0.1940 0.9785 -0.0693
vn -0.2350 0.9720 -0.0000
vn 0.2502 0.9659 -0.0658
vn 0.2402 0.9660 0.0960
vn -0.0930 0.9819 0.1652
vn 0.0467 0.9756 0.2147
vn 0.1906 0.9687 0.1589
vn 0.6212 0.4722 0.6255
vn 0.6331 0.4509 0.6292
vn 0.0945 0.8437 0.5284
vn 0.2207 0.5876 0.7784
vn -0.3160 0.8041 0.5036
vn 0.3163 -0.0000 -0.9487
vn -0.9096 0.2421 0.3378
vn -0.9283 -0.0000 0.3718
vn 0.1688 -0.9844 -0.0500
vn -0.0417 -0.9978 -0.0507
vn 0.0883 -0.9959 -0.0177
vn -0.0125 -0.9980 -0.0624
vn 0.0347 -0.9986 -0.0388
vn 0.0177 -0.9992 -0.0354
vn 0.1700 0.9840 -0.0539
vn -0.0457 0.9975 -0.0546
vn 0.0935 0.9954 -0.0187
vn -0.0138 0.9975 -0.0688
vn 0.0337 0.9985 -0.0430
vn 0.0200 0.9990 -0.0399
vn 0.9418 -0.0000 -0.3363
vn 1.0000 -0.0000 -0.0000
vn 0.4902 -0.0000 0.8716
vn -0.2125 -0.0000 0.9772
vn -0.7683 -0.0000 0.6401
vn -0.9285 -0.0000 0.3713
vn -0.9671 -0.0000 -0.2545
vn -0.9103 -0.0000 -0.4138
vn -0.9969 -0.0000 -0.0783
vn 0.1813 -0.9834 -0.0072
vn 0.1620 -0.9837 0.0777
vn 0.0095 -0.9998 -0.0190
vn -0.0087 -0.9997 0.0245
vn 0.0008 -0.9994 -0.0338
vn 0.0121 -0.9984 -0.0558
vn 0.2167 0.9762 -0.0086
vn 0.5251 0.7422 -0.4163
vn 0.7655 0.5825 -0.2734
vn 0.7248 0.6890 -0.0000
vn 0.3153 0.7656 0.5607
vn -0.1487 0.7143 0.6839
vn -0.5034 0.7163 0.4832
vn -0.5719 0.6678 0.4765
vn -0.6558 0.7062 0.2668
vn -0.6612 0.7021 0.2644
vn -0.6509 0.7473 -0.1339
vn -0.6841 0.7068 -0.1801
vn -0.5436 0.8151 -0.2002
vn -0.5762 0.7742 -0.2620
vn 0.3023 0.6428 -0.7038
vn 0.0981 0.8979 -0.4291
vn -0.3690 0.9142 -0.1677
vn -0.3690 0.9142 -0.1678
vn 0.0708 0.9482 -0.3098
vn 0.3263 0.9381 -0.1165
vn 0.3905 0.9206 -0.0000
vn -0.4113 0.9050 -0.1083
vn -0.3948 0.9051 0.1579
vn 0.1573 0.9471 0.2797
vn -0.0781 0.9301 0.3590
vn -0.3150 0.9121 0.2624
vn -0.3150 0.9121 0.2625
vn -0.2231 0.9695 -0.1014
vn 0.0418 0.9822 -0.1829
vn 0.1940 0.9785 -0.0693
vn 0.2350 0.9720 -0.0000
vn -0.2502 0.9659 -0.0659
vn -0.2402 0.9660 0.0961
vn 0.0929 0.9819 0.1653
vn -0.0467 0.9756 0.2147
vn -0.1907 0.9687 0.1589
vn -0.6212 0.4722 0.6254
vn -0.6332 0.4509 0.6291
vn -0.0946 0.8437 0.5284
vn -0.2208 0.5876 0.7784
vn 0.3159 0.8041 0.5036
vn -0.3162 -0.0000 -0.9487
vn 0.9095 0.2421 0.3379
vn 0.9283 -0.0000 0.3718
vn -0.1687 -0.9844 -0.0500
vn 0.0417 -0.9978 -0.0507
vn -0.0883 -0.9959 -0.0177
vn 0.0125 -0.9980 -0.0624
vn -0.0347 -0.9986 -0.0388
vn -0.0177 -0.9992 -0.0354
vn -0.1700 0.9840 -0.0539
vn 0.0457 0.9975 -0.0546
vn -0.0935 0.9954 -0.0187
vn 0.0138 0.9975 -0.0688
vn -0.0337 0.9985 -0.0430
vn -0.0200 0.9990 -0.0400
s 0
usemtl archwhite
f 10//8 11//8 12//8
f 11//8 13//8 12//8
f 10//9 14//9 15//9
f 10//9 15//9 11//9
f 16//10 17//10 14//10
f 17//10 15//10 14//10
f 18//11 19//11 16//11
f 19//11 17//11 16//11
f 20//12 21//12 18//12
f 21//12 19//12 18//12
f 22//13 23//13 20//13
f 23//13 21//13 20//13
f 24//14 25//14 26//14
f 25//14 27//14 26//14
f 12//15 13//15 24//15
f 13//15 25//15 24//15
f 10//16 12//16 28//16
f 29//17 10//17 28//17
f 11//18 30//18 13//18
f 31//19 13//19 30//19
f 10//20 29//20 14//20
f 32//21 14//21 29//21
f 15//22 33//22 11//22
f 30//23 11//23 33//23
f 14//24 32//24 16//24
f 17//24 33//24 15//24
f 16//25 32//25 18//25
f 29//26 18//26 32//26
f 19//27 30//27 17//27
f 33//28 17//28 30//28
f 18//29 29//29 20//29
f 21//30 30//30 19//30
f 20//31 29//31 22//31
f 28//32 22//32 29//32
f 23//33 31//33 21//33
f 30//34 21//34 31//34
f 34//35 35//35 24//35
f 36//36 27//36 25//36
f 28//37 12//37 24//37
f 13//38 31//38 25//38
f 26//14 34//14 24//14
f 37//14 23//14 22//14
f 31//39 23//39 37//39
f 37//14 22//14 38//14
f 38//14 22//14 39//14
f 40//40 22//40 28//40
f 39//14 22//14 40//14
f 25//41 31//41 36//41
f 36//42 31//42 37//42
f 35//43 28//43 24//43
f 40//44 28//44 35//44
f 41//45 42//45 43//45
f 44//46 45//46 41//46
f 45//46 42//46 41//46
f 46//47 47//47 44//47
f 47//47 45//47 44//47
f 48//48 49//48 46//48
f 49//48 47//48 46//48
f 50//49 51//49 48//49
f 51//49 49//49 48//49
f 52//50 53//50 50//50
f 53//50 51//50 50//50
f 54//51 55//51 52//51
f 55//51 53//51 52//51
f 56//52 57//52 54//52
f 57//52 55//52 54//52
f 58//53 57//53 56//53
f 43//54 58//54 56//54
f 43//55 56//55 54//55
f 41//56 43//56 54//56
f 44//57 41//57 54//57
f 44//58 54//58 52//58
f 44//59 52//59 50//59
f 46//60 44//60 50//60
f 48//61 46//61 50//61
f 59//13 43//13 58//13
f 58//62 43//62 57//62
f 42//63 60//63 43//63
f 61//64 43//64 60//64
f 45//65 62//65 42//65
f 60//65 42//65 62//65
f 47//66 63//66 45//66
f 62//66 45//66 63//66
f 49//67 64//67 47//67
f 63//67 47//67 64//67
f 51//68 65//68 49//68
f 64//69 49//69 65//69
f 53//70 66//70 51//70
f 65//71 51//71 66//71
f 55//72 67//72 53//72
f 66//73 53//73 67//73
f 57//74 68//74 55//74
f 67//75 55//75 68//75
f 43//76 61//76 57//76
f 68//77 57//77 61//77
f 68//78 69//78 67//78
f 70//79 67//79 69//79
f 61//80 71//80 68//80
f 69//80 68//80 71//80
f 60//81 72//81 61//81
f 71//82 61//82 72//82
f 62//83 73//83 60//83
f 72//83 60//83 73//83
f 67//84 70//84 66//84
f 74//85 66//85 70//85
f 66//86 74//86 65//86
f 75//86 65//86 74//86
f 63//87 76//87 62//87
f 73//88 62//88 76//88
f 64//89 77//89 63//89
f 76//89 63//89 77//89
f 65//90 75//90 64//90
f 77//91 64//91 75//91
f 69//92 78//92 70//92
f 71//93 78//93 69//93
f 72//94 78//94 71//94
f 73//95 78//95 72//95
f 70//96 78//96 74//96
f 74//97 78//97 75//97
f 76//98 78//98 73//98
f 77//99 78//99 76//99
f 75//100 78//100 77//100
f 79//101 80//101 81//101
f 80//102 82//102 81//102
f 83//103 84//103 79//103
f 84//104 80//104 79//104
f 85//105 84//105 83//105
f 86//106 87//106 88//106
f 81//107 82//107 86//107
f 82//108 87//108 86//108
f 81//109 86//109 88//109
f 79//110 81//110 88//110
f 89//111 85//111 83//111
f 79//112 88//112 90//112
f 83//113 79//113 90//113
f 89//114 83//114 90//114
f 87//115 82//115 88//115
f 82//116 80//116 88//116
f 85//117 89//117 84//117
f 88//118 80//118 90//118
f 80//119 84//119 90//119
f 84//120 89//120 90//120
f 91//121 92//121 93//121
f 93//122 94//122 95//122
f 93//122 92//122 94//122
f 95//123 96//123 97//123
f 95//123 94//123 96//123
f 97//124 98//124 99//124
f 97//124 96//124 98//124
f 99//125 100//125 101//125
f 99//125 98//125 100//125
f 101//126 102//126 103//126
f 101//126 100//126 102//126
f 103//127 104//127 105//127
f 103//127 102//127 104//127
f 105//128 106//128 107//128
f 105//128 104//128 106//128
f 107//129 106//129 108//129
f 108//8 109//8 91//8
f 107//130 108//130 91//130
f 105//131 107//131 91//131
f 105//56 91//56 93//56
f 105//57 93//57 95//57
f 103//132 105//132 95//132
f 101//133 103//133 95//133
f 101//134 95//134 97//134
f 101//135 97//135 99//135
f 106//136 91//136 108//136
f 91//137 110//137 92//137
f 110//138 91//138 111//138
f 92//139 112//139 94//139
f 112//139 92//139 110//139
f 94//140 113//140 96//140
f 113//140 94//140 112//140
f 96//141 114//141 98//141
f 114//141 96//141 113//141
f 98//142 115//142 100//142
f 115//143 98//143 114//143
f 100//144 116//144 102//144
f 116//145 100//145 115//145
f 102//146 117//146 104//146
f 117//147 102//147 116//147
f 104//148 118//148 106//148
f 118//149 104//149 117//149
f 106//150 111//150 91//150
f 111//151 106//151 118//151
f 117//152 119//152 118//152
f 119//153 117//153 120//153
f 118//154 121//154 111//154
f 121//154 118//154 119//154
f 111//155 122//155 110//155
f 122//155 111//155 121//155
f 110//156 123//156 112//156
f 123//156 110//156 122//156
f 116//157 120//157 117//157
f 120//157 116//157 124//157
f 115//158 124//158 116//158
f 124//158 115//158 125//158
f 112//159 126//159 113//159
f 126//159 112//159 123//159
f 113//160 127//160 114//160
f 127//160 113//160 126//160
f 114//161 125//161 115//161
f 125//162 114//162 127//162
f 120//163 128//163 119//163
f 119//164 128//164 121//164
f 121//165 128//165 122//165
f 122//166 128//166 123//166
f 124//167 128//167 120//167
f 125//168 128//168 124//168
f 123//169 128//169 126//169
f 126//170 128//170 127//170
f 127//171 128//171 125//171
f 129//172 130//172 131//172
f 129//173 132//173 130//173
f 131//174 133//174 134//174
f 131//175 130//175 133//175
f 134//176 133//176 135//176
f 136//177 137//177 138//177
f 138//178 132//178 129//178
f 138//179 137//179 132//179
f 136//180 138//180 129//180
f 136//181 129//181 131//181
f 134//182 135//182 139//182
f 140//183 136//183 131//183
f 140//184 131//184 134//184
f 140//185 134//185 139//185
f 136//186 132//186 137//186
f 136//187 130//187 132//187
f 133//188 139//188 135//188
f 140//189 130//189 136//189
f 140//190 133//190 130//190
f 140//191 139//191 133//191
