# Blender 4.0.2
# www.blender.org
mtllib ship.mtl
o mesh-windo
v 0.096590 0.050713 0.594787
v 0.113708 0.092974 0.527170
v -0.017301 0.092974 0.527164
v 0.169651 0.051006 0.472575
v -0.034419 0.050713 0.594780
v -0.096971 0.050713 0.594777
v -0.114082 0.092974 0.527159
v -0.170019 0.051006 0.472557
v -0.082805 0.092974 0.527160
vn 0.2137 0.8032 0.5561
vn 0.5099 0.6655 0.5450
vn -0.0000 0.8480 0.5300
vn 0.7749 0.4290 0.4643
vn -0.7749 0.4290 0.4642
vn -0.2138 0.8032 0.5561
vn -0.5100 0.6655 0.5450
s 1
usemtl blue_pure
f 1//1 2//2 3//3
s 0
f 1//4 4//4 2//4
s 1
f 1//1 3//3 5//3
s 0
f 6//5 7//5 8//5
s 1
f 5//3 9//3 6//6
f 3//3 9//3 5//3
f 9//3 7//7 6//6
o mesh-cruis
v -0.049295 -0.135235 -0.081393
v 0.048986 -0.135235 -0.081388
v -0.082244 -0.135235 0.594777
v 0.081863 -0.135235 0.594786
v -0.025783 -0.067617 -0.385670
v 0.025505 -0.067617 -0.385667
v -0.025783 -0.033809 -0.385670
v 0.025505 -0.033809 -0.385667
v -0.049294 0.033809 -0.115202
v 0.048987 0.033809 -0.115197
v -0.090466 0.135235 0.121456
v 0.090135 0.135235 0.121466
v -0.131192 0.135235 0.459541
v 0.130825 0.135235 0.459554
v -0.062750 -0.033809 0.730013
v 0.062354 -0.033809 0.730019
v -0.034419 0.050713 0.594780
v 0.096590 0.050713 0.594787
v -0.243074 -0.033809 0.463862
v -0.112194 -0.035638 -0.098301
v 0.111886 -0.035638 -0.098289
v 0.242707 -0.033809 0.463888
v -0.042202 -0.050713 -0.385671
v 0.041924 -0.050713 -0.385666
v -0.096971 0.050713 0.594777
v -0.123990 0.051006 0.545911
v 0.123622 0.051006 0.545925
v 0.113708 0.092974 0.527170
v -0.017301 0.092974 0.527164
v -0.082805 0.092974 0.527160
v -0.114082 0.092974 0.527159
v 0.247244 -0.025045 -0.036321
v 0.247244 -0.002168 -0.036321
v 0.258017 -0.011466 -0.066480
v 0.247239 -0.025746 0.054158
v 0.247239 -0.002168 0.054158
v 0.281706 -0.026428 0.073548
v 0.281706 -0.002168 0.073548
v 0.331256 -0.026428 0.062780
v 0.331256 -0.002168 0.062780
v 0.352801 -0.025246 0.036930
v 0.352801 0.000133 0.036930
v 0.365727 -0.025926 0.004616
v 0.365727 0.000342 0.004616
v 0.354958 -0.025045 -0.036315
v 0.354958 0.002389 -0.036315
v 0.333418 0.005118 -0.083711
v 0.260205 -0.011466 -0.729992
v 0.264134 0.015598 -0.025948
v 0.271915 0.015598 -0.047729
v 0.264130 0.015598 0.039398
v 0.289023 0.015598 0.053402
v 0.324807 0.015598 0.045625
v 0.340366 0.015598 0.026955
v 0.349703 0.015598 0.003618
v 0.341924 0.015598 -0.025944
v 0.326368 0.015598 -0.060174
v 0.319716 0.022360 -0.037956
v 0.280074 0.022360 -0.016156
v 0.280072 0.022360 0.025466
v 0.308040 0.029121 0.001023
v 0.232269 -0.037612 0.121473
v 0.232269 -0.014791 0.104245
v 0.164648 -0.038221 0.189087
v 0.164649 -0.014183 0.171859
v 0.367505 -0.031597 0.087672
v 0.367506 -0.020807 0.070444
v 0.435120 -0.026202 0.121484
v 0.063236 -0.041872 -0.081388
v 0.063236 -0.010531 -0.081388
v 0.164660 -0.026202 -0.047573
v 0.401321 -0.026202 -0.047561
v 0.333705 -0.026202 -0.081373
v -0.257998 -0.011466 -0.066507
v -0.247228 -0.002168 -0.036347
v -0.247228 -0.025045 -0.036347
v -0.247233 -0.002168 0.054132
v -0.247233 -0.025746 0.054132
v -0.281702 -0.002168 0.073518
v -0.281702 -0.026428 0.073518
v -0.331250 -0.002168 0.062745
v -0.331250 -0.026428 0.062745
v -0.352791 0.000133 0.036892
v -0.352791 -0.025246 0.036892
v -0.365715 0.000342 0.004578
v -0.365715 -0.025926 0.004578
v -0.354941 0.002389 -0.036353
v -0.354941 -0.025045 -0.036353
v -0.333396 0.005118 -0.083746
v -0.283815 -0.011466 -0.714942
v -0.260118 -0.011466 -0.730019
v -0.264117 0.015598 -0.025976
v -0.271895 0.015598 -0.047758
v -0.264120 0.015598 0.039370
v -0.289015 0.015598 0.053372
v -0.324799 0.015598 0.045591
v -0.340357 0.015598 0.026920
v -0.349691 0.015598 0.003581
v -0.341910 0.015598 -0.025980
v -0.326349 0.015598 -0.060208
v -0.319697 0.022360 -0.037989
v -0.285013 0.022360 -0.030060
v -0.295918 0.022360 0.034354
v -0.308028 0.029121 0.000990
v -0.164655 -0.038221 0.189070
v -0.232267 -0.014791 0.104221
v -0.232269 -0.037612 0.121449
v -0.164654 -0.014183 0.171841
v -0.367500 -0.020807 0.070405
v -0.367501 -0.031597 0.087633
v -0.435120 -0.026202 0.121438
v -0.164643 -0.026202 -0.047591
v -0.063215 -0.010531 -0.081394
v -0.063215 -0.041872 -0.081394
v -0.401303 -0.026202 -0.047603
v -0.333684 -0.026202 -0.081408
v 0.283904 -0.011466 -0.714912
vn -0.0000 -1.0000 -0.0000
vn -0.0000 -0.9762 -0.2169
vn 0.0001 -0.0000 -1.0000
vn -0.0000 0.9701 -0.2425
vn -0.0000 0.9191 -0.3939
vn -0.0000 1.0000 -0.0000
vn -0.0000 0.8480 0.5300
vn -0.0000 -0.8000 0.6000
vn -0.5185 -0.8547 -0.0253
vn -0.8157 -0.5471 -0.1881
vn 0.8416 -0.5385 -0.0409
vn 0.4673 -0.8777 -0.1059
vn -0.8165 -0.5470 -0.1847
vn -0.7106 -0.6902 -0.1369
vn 0.7020 -0.6818 -0.2057
vn 0.8197 -0.5467 -0.1709
vn -0.0000 -0.0000 -1.0000
vn -0.6981 0.6780 -0.2302
vn -0.7493 0.6263 -0.2154
vn 0.7490 0.6245 -0.2212
vn 0.7018 0.6817 -0.2066
vn -0.7312 0.5717 -0.3722
vn 0.7312 0.5717 -0.3721
vn -0.9560 0.2697 -0.1152
vn -0.8205 0.5381 -0.1928
vn 0.8309 0.5474 -0.1000
vn 0.8986 0.3849 -0.2104
vn -0.8049 0.3899 0.4474
vn 0.8047 0.3901 0.4475
vn -0.7134 -0.5074 0.4834
vn 0.7134 -0.5074 0.4834
vn 0.7216 0.4901 0.4890
vn -0.7216 0.4901 0.4889
vn 0.7037 0.5267 0.4769
vn 0.6987 0.4229 0.5770
vn -0.7037 0.5268 0.4768
vn -0.6987 0.4228 0.5771
vn -0.9417 -0.0000 -0.3364
vn -1.0000 -0.0000 -0.0000
vn -0.4903 -0.0000 0.8716
vn 0.2124 -0.0000 0.9772
vn 0.7682 -0.0000 0.6402
vn 0.9285 -0.0000 0.3714
vn 0.9671 -0.0000 -0.2544
vn 0.9044 -0.0235 -0.4260
vn 0.9104 -0.0000 -0.4137
vn 0.9969 0.0033 -0.0783
vn -0.1926 -0.9813 -0.0077
vn -0.1700 -0.9798 0.1054
vn -0.0000 -0.9118 -0.4106
vn -0.0000 -1.0000 -0.0077
vn -0.0095 -0.9998 -0.0190
vn 0.0087 -0.9997 0.0245
vn -0.0008 -0.9994 -0.0338
vn -0.0121 -0.9984 -0.0558
vn -0.2167 0.9762 -0.0087
vn -0.5250 0.7423 -0.4164
vn -0.7655 0.5825 -0.2734
vn -0.7247 0.6890 -0.0000
vn -0.3154 0.7656 0.5606
vn 0.1486 0.7143 0.6839
vn 0.5033 0.7163 0.4832
vn 0.5718 0.6678 0.4766
vn 0.6557 0.7062 0.2669
vn 0.6611 0.7021 0.2645
vn 0.6508 0.7473 -0.1339
vn 0.6841 0.7068 -0.1800
vn 0.5436 0.8151 -0.2001
vn 0.5762 0.7742 -0.2619
vn -0.3022 0.6429 -0.7038
vn -0.0981 0.8979 -0.4292
vn 0.3691 0.9141 -0.1677
vn -0.0452 0.9792 -0.1980
vn -0.1850 0.9234 -0.3364
vn -0.3263 0.9380 -0.1166
vn -0.3905 0.9206 -0.0000
vn -0.1573 0.9471 0.2797
vn 0.0479 0.9742 0.2204
vn 0.3235 0.9439 -0.0668
vn -0.1111 0.9730 -0.2021
vn -0.2350 0.9720 -0.0000
vn 0.3123 0.9464 -0.0822
vn 0.2997 0.9465 0.1199
vn 0.0168 0.9586 0.2843
vn 0.2383 0.9506 0.1986
vn 0.6212 0.4722 0.6255
vn 0.6331 0.4509 0.6292
vn 0.0945 0.8437 0.5284
vn 0.2207 0.5876 0.7784
vn -0.3160 0.8041 0.5036
vn 0.3163 -0.0000 -0.9487
vn -0.9096 0.2421 0.3378
vn -0.9283 -0.0000 0.3718
vn 0.1688 -0.9844 -0.0500
vn -0.0417 -0.9978 -0.0507
vn 0.0883 -0.9959 -0.0177
vn -0.0125 -0.9980 -0.0624
vn 0.0347 -0.9986 -0.0388
vn 0.0177 -0.9992 -0.0354
vn 0.1700 0.9840 -0.0539
vn -0.0457 0.9975 -0.0546
vn 0.0935 0.9954 -0.0187
vn -0.0138 0.9975 -0.0688
vn 0.0337 0.9985 -0.0430
vn 0.0200 0.9990 -0.0399
vn 0.9418 -0.0000 -0.3363
vn 1.0000 -0.0000 -0.0000
vn 0.4902 -0.0000 0.8716
vn -0.2125 -0.0000 0.9772
vn -0.7683 -0.0000 0.6401
vn -0.9285 -0.0000 0.3713
vn -0.9671 -0.0000 -0.2545
vn -0.9044 -0.0235 -0.4261
vn -0.9103 -0.0000 -0.4138
vn -0.9969 0.0033 -0.0784
vn 0.1926 -0.9813 -0.0077
vn 0.1700 -0.9798 0.1054
vn 0.0095 -0.9998 -0.0190
vn -0.0087 -0.9997 0.0245
vn 0.0008 -0.9994 -0.0338
vn 0.0121 -0.9984 -0.0558
vn 0.2167 0.9762 -0.0086
vn 0.5251 0.7422 -0.4163
vn 0.7655 0.5825 -0.2734
vn 0.7248 0.6890 -0.0000
vn 0.3153 0.7656 0.5607
vn -0.1487 0.7143 0.6839
vn -0.5034 0.7163 0.4832
vn -0.5719 0.6678 0.4765
vn -0.6558 0.7062 0.2668
vn -0.6612 0.7021 0.2644
vn -0.6509 0.7473 -0.1339
vn -0.6841 0.7068 -0.1801
vn -0.5436 0.8151 -0.2002
vn -0.5762 0.7742 -0.2620
vn 0.3023 0.6428 -0.7038
vn 0.0981 0.8979 -0.4291
vn -0.3690 0.9142 -0.1677
vn 0.0708 0.9482 -0.3098
vn 0.3263 0.9381 -0.1165
vn 0.2080 0.9781 -0.0000
vn 0.2985 0.9531 0.0505
vn 0.1573 0.9471 0.2797
vn -0.0781 0.9301 0.3590
vn -0.3235 0.9439 -0.0669
vn 0.0418 0.9822 -0.1829
vn 0.3552 0.9329 0.0601
vn -0.3123 0.9464 -0.0822
vn -0.2998 0.9465 0.1199
vn -0.1308 0.9613 0.2423
vn -0.2384 0.9506 0.1986
vn -0.6212 0.4722 0.6254
vn -0.6332 0.4509 0.6291
vn -0.0946 0.8437 0.5284
vn -0.2208 0.5876 0.7784
vn 0.3159 0.8041 0.5036
vn -0.3162 -0.0000 -0.9487
vn 0.9095 0.2421 0.3379
vn 0.9283 -0.0000 0.3718
vn -0.1687 -0.9844 -0.0500
vn 0.0417 -0.9978 -0.0507
vn -0.0883 -0.9959 -0.0177
vn 0.0125 -0.9980 -0.0624
vn -0.0347 -0.9986 -0.0388
vn -0.0177 -0.9992 -0.0354
vn -0.1700 0.9840 -0.0539
vn 0.0457 0.9975 -0.0546
vn -0.0935 0.9954 -0.0187
vn 0.0138 0.9975 -0.0688
vn -0.0337 0.9985 -0.0430
vn -0.0200 0.9990 -0.0400
s 1
usemtl archwhite
f 10//8 11//8 12//8
f 11//8 13//8 12//8
f 10//9 14//9 15//9
f 10//9 15//9 11//9
f 16//10 17//10 14//10
f 17//10 15//10 14//10
f 18//11 19//11 16//11
f 19//11 17//11 16//11
f 20//12 21//12 18//12
f 21//12 19//12 18//12
f 22//13 23//13 20//13
f 23//13 21//13 20//13
f 24//14 25//14 26//14
f 25//14 27//14 26//14
f 12//15 13//15 24//15
f 13//15 25//15 24//15
f 10//16 12//16 28//16
f 29//17 10//17 28//17
f 11//18 30//18 13//18
f 31//19 13//19 30//19
f 10//20 29//20 14//20
f 32//21 14//21 29//21
f 15//22 33//22 11//22
f 30//23 11//23 33//23
f 14//24 32//24 16//24
f 17//24 33//24 15//24
f 16//25 32//25 18//25
f 29//26 18//26 32//26
f 19//27 30//27 17//27
f 33//28 17//28 30//28
f 18//29 29//29 20//29
f 21//30 30//30 19//30
f 20//31 29//31 22//31
f 28//32 22//32 29//32
f 23//33 31//33 21//33
f 30//34 21//34 31//34
f 34//35 35//35 24//35
f 36//36 27//36 25//36
s 0
f 28//37 12//37 24//37
s 1
f 13//38 31//38 25//38
f 26//14 34//14 24//14
f 37//14 23//14 22//14
f 31//39 23//39 37//39
f 37//14 22//14 38//14
f 38//14 22//14 39//14
f 40//40 22//40 28//40
f 39//14 22//14 40//14
f 25//41 31//41 36//41
s 0
f 36//42 31//42 37//42
s 1
f 35//43 28//43 24//43
s 0
f 40//44 28//44 35//44
s 1
f 41//45 42//45 43//45
f 44//46 45//46 41//46
f 45//46 42//46 41//46
f 46//47 47//47 44//47
f 47//47 45//47 44//47
f 48//48 49//48 46//48
f 49//48 47//48 46//48
f 50//49 51//49 48//49
f 51//49 49//49 48//49
f 52//50 53//50 50//50
f 53//50 51//50 50//50
f 54//51 55//51 52//51
f 55//51 53//51 52//51
f 82//52 56//52 54//52
f 56//53 55//53 54//53
f 126//54 56//54 82//54
f 43//55 126//55 82//55
f 43//56 82//56 54//56
f 41//57 43//57 54//57
f 44//58 41//58 54//58
f 44//59 54//59 52//59
f 44//60 52//60 50//60
f 46//61 44//61 50//61
f 48//62 46//62 50//62
f 126//63 43//63 56//63
f 42//64 58//64 43//64
f 59//65 43//65 58//65
f 45//66 60//66 42//66
f 58//66 42//66 60//66
f 47//67 61//67 45//67
f 60//67 45//67 61//67
f 49//68 62//68 47//68
f 61//68 47//68 62//68
f 51//69 63//69 49//69
f 62//70 49//70 63//70
f 53//71 64//71 51//71
f 63//72 51//72 64//72
f 55//73 65//73 53//73
f 64//74 53//74 65//74
f 56//75 66//75 55//75
f 65//76 55//76 66//76
f 43//77 59//77 56//77
f 66//78 56//78 59//78
f 66//79 67//79 65//79
f 59//80 68//80 66//80
f 67//81 66//81 68//81
f 58//82 68//82 59//82
f 60//83 69//83 58//83
f 68//83 58//83 69//83
f 61//84 69//84 60//84
f 69//85 61//85 62//85
f 67//86 70//86 65//86
f 68//87 70//87 67//87
f 69//88 70//88 68//88
f 65//89 70//89 64//89
f 64//90 70//90 63//90
f 62//91 70//91 69//91
f 63//92 70//92 62//92
f 71//93 72//93 73//93
f 72//94 74//94 73//94
f 75//95 76//95 71//95
f 76//96 72//96 71//96
f 77//97 76//97 75//97
f 78//98 79//98 80//98
s 0
f 73//99 74//99 78//99
s 1
f 74//100 79//100 78//100
f 73//101 78//101 80//101
f 71//102 73//102 80//102
f 81//103 77//103 75//103
f 71//104 80//104 82//104
f 75//105 71//105 82//105
f 81//106 75//106 82//106
f 79//107 74//107 80//107
f 74//108 72//108 80//108
f 77//109 81//109 76//109
f 80//110 72//110 82//110
f 72//111 76//111 82//111
f 76//112 81//112 82//112
f 83//113 84//113 85//113
f 85//114 86//114 87//114
f 85//114 84//114 86//114
f 87//115 88//115 89//115
f 87//115 86//115 88//115
f 89//116 90//116 91//116
f 89//116 88//116 90//116
f 91//117 92//117 93//117
f 91//117 90//117 92//117
f 93//118 94//118 95//118
f 93//118 92//118 94//118
f 95//119 96//119 97//119
f 95//119 94//119 96//119
f 97//120 98//120 125//120
f 97//121 96//121 98//121
f 125//122 98//122 99//122
f 125//123 99//123 83//123
f 97//124 125//124 83//124
f 97//57 83//57 85//57
f 97//58 85//58 87//58
f 95//125 97//125 87//125
f 93//126 95//126 87//126
f 93//127 87//127 89//127
f 93//128 89//128 91//128
f 98//129 83//129 99//129
f 83//130 101//130 84//130
f 101//131 83//131 102//131
f 84//132 103//132 86//132
f 103//132 84//132 101//132
f 86//133 104//133 88//133
f 104//133 86//133 103//133
f 88//134 105//134 90//134
f 105//134 88//134 104//134
f 90//135 106//135 92//135
f 106//136 90//136 105//136
f 92//137 107//137 94//137
f 107//138 92//138 106//138
f 94//139 108//139 96//139
f 108//140 94//140 107//140
f 96//141 109//141 98//141
f 109//142 96//142 108//142
f 98//143 102//143 83//143
f 102//144 98//144 109//144
f 108//145 110//145 109//145
f 109//146 111//146 102//146
f 111//146 109//146 110//146
f 102//147 111//147 101//147
f 101//148 112//148 103//148
f 112//149 101//149 111//149
f 103//150 112//150 104//150
f 105//151 104//151 112//151
f 108//152 113//152 110//152
f 110//153 113//153 111//153
f 111//154 113//154 112//154
f 107//155 113//155 108//155
f 106//156 113//156 107//156
f 112//157 113//157 105//157
f 105//158 113//158 106//158
f 114//159 115//159 116//159
f 114//160 117//160 115//160
f 116//161 118//161 119//161
f 116//162 115//162 118//162
f 119//163 118//163 120//163
f 121//164 122//164 123//164
f 123//165 117//165 114//165
s 0
f 123//166 122//166 117//166
s 1
f 121//167 123//167 114//167
f 121//168 114//168 116//168
f 119//169 120//169 124//169
f 125//170 121//170 116//170
f 125//171 116//171 119//171
f 125//172 119//172 124//172
f 121//173 117//173 122//173
f 121//174 115//174 117//174
f 118//175 124//175 120//175
f 125//176 115//176 121//176
f 125//177 118//177 115//177
f 125//178 124//178 118//178
f 57//13 43//13 126//13
f 99//13 83//13 100//13
